<svg xmlns="http://www.w3.org/2000/svg" viewBox="0 0 333333 331356" shape-rendering="geometricPrecision" text-rendering="geometricPrecision" image-rendering="optimizeQuality" fill-rule="evenodd" clip-rule="evenodd"><path d="M23534 0h286265c6526 0 12360 2670 16612 6922s6922 10185 6922 16612v284287c0 6526-2670 12361-6922 16613s-10185 6922-16612 6922H23534c-6526 0-12360-2670-16612-6922S0 314249 0 307822V23535c0-6526 2670-12361 6922-16612C11174 2671 17107 1 23534 1zm1143 239593l96059-91961c3857-3559 9888-3164 13349 692 99 99 99 198 198 198l85335 100959 13053-80293c890-5142 5735-8702 10877-7812 1978 296 3757 1285 5142 2571l59868 62889V29225c0-1285-494-2373-1385-3164-791-791-1978-1385-3164-1385H29127c-1285 0-2373 494-3164 1385-791 791-1385 1978-1385 3164v210367h99zM245569 53891c9394 0 17997 3857 24128 9987 6230 6230 9987 14733 9987 24127s-3856 17997-9987 24128c-6230 6230-14733 9987-24128 9987-9394 0-17996-3856-24127-9987-6230-6230-9987-14733-9987-24128 0-9394 3856-17996 9987-24127 6230-6230 14733-9987 24127-9987z" fill-rule="nonzero"/></svg>